<svg xmlns="http://www.w3.org/2000/svg" xmlns:xlink="http://www.w3.org/1999/xlink" width="67" height="48" viewBox="0 0 67 48">
  <defs>
    <path id="bai-logo-colored-a" d="M34.9949361,23.3732338 C35.1690583,21.5351239 35.7808275,20.2220464 36.8302436,19.4340013 C37.8796598,18.6459562 39.3217378,18.2520755 41.1564777,18.2523592 C41.9351543,18.249101 42.7129883,18.3039412 43.4834995,18.4164229 C44.1540734,18.5085682 44.7999615,18.7316988 45.3843689,19.0731036 C45.9365843,19.4075202 46.389243,19.8835412 46.695394,20.4517924 C47.0232035,21.0425071 47.1871083,21.8412628 47.1871083,22.8480596 C47.2296809,23.8113046 46.9458632,24.5443781 46.335655,25.04728 C45.6003743,25.6091585 44.7499062,26.0015534 43.8451542,26.1963647 C42.65954,26.4815509 41.4545256,26.6790609 40.2398882,26.7872921 C38.8848004,26.9183729 37.5082843,27.093431 36.1103399,27.3124664 C34.7078669,27.5327124 33.3183263,27.8285722 31.9477978,28.1987512 C30.6368609,28.541031 29.39502,29.1073936 28.2771828,29.8727973 C27.1793328,30.6474275 26.2807603,31.6711344 25.6551324,32.8599919 C24.9770918,34.1073872 24.6384263,35.6939753 24.6391358,37.6197561 C24.6391358,39.3707626 24.9340934,40.8808159 25.5240086,42.1499161 C26.0827339,43.3797874 26.9251479,44.4597333 27.9821542,45.3011745 C29.0705495,46.1530672 30.3187585,46.7781608 31.6529821,47.1394972 C33.1259698,47.5430351 34.6475857,47.7415973 36.1748375,47.7295735 C38.2629445,47.7308153 40.339586,47.4210636 42.336379,46.8105185 C44.3320136,46.2068659 46.1381551,45.0988372 47.5802668,43.593507 C47.6224807,44.1557542 47.6991132,44.714888 47.8097335,45.2677659 C47.9175809,45.8123002 48.0597737,46.3494702 48.2354601,46.8760589 L57.6744581,46.8760589 C57.2372369,46.1765359 56.9313523,45.1261164 56.7568044,43.7248005 C56.5782189,42.2654386 56.4906339,40.7963828 56.4945568,39.3261469 L56.4945568,21.6662047 C56.4945568,19.6092012 56.0356944,17.9570019 55.1179697,16.7096066 C54.1966566,15.4593538 52.9808637,14.455784 51.5784785,13.7879524 C50.0678967,13.068054 48.4528646,12.5916753 46.7933111,12.3764933 C45.0773898,12.1381282 43.3471797,12.0172637 41.6147724,12.0147444 C39.7328277,12.0152943 37.8555682,12.2022602 36.010507,12.5729017 C34.2456101,12.9102902 32.5502837,13.5428614 30.995873,14.4439946 C29.5221974,15.3078244 28.2664403,16.4981599 27.325258,17.9233805 C26.3635415,19.3678225 25.8171924,21.1842275 25.6862105,23.3725955 L34.9942976,23.3725955 L34.9949361,23.3732338 Z M47.1871083,33.7462767 C47.1735788,34.4491797 47.11885,35.1506858 47.0232035,35.8471866 C46.9009611,36.7610564 46.6006966,37.6421071 46.139395,38.4405005 C45.5987426,39.3535674 44.8309708,40.1112641 43.9107161,40.6399337 C42.9050079,41.2532045 41.4847129,41.5595561 39.6498311,41.5589887 C38.9242359,41.5605919 38.2000687,41.4946247 37.4867141,41.3619419 C36.8370586,41.2495153 36.214421,41.0156878 35.6514066,40.6727039 C35.1244257,40.3421454 34.6946421,39.8776966 34.4059433,39.3267853 C34.0809687,38.6754 33.9233214,37.9533856 33.9472229,37.2258754 C33.9190917,36.4769605 34.076677,35.732715 34.4059433,35.0594252 C34.6999957,34.5042907 35.1145607,34.0219535 35.6192642,33.6477533 C36.1572212,33.2582503 36.7550281,32.9589059 37.3892227,32.7614686 C38.0656668,32.5428959 38.7553126,32.3674849 39.4539969,32.2362943 C40.1964641,32.1050717 40.9393571,31.9956958 41.6826758,31.9081668 C42.4259945,31.8206378 43.1361065,31.711191 43.8130119,31.5798265 C44.4566843,31.4572432 45.0916593,31.2927583 45.7138813,31.0874224 C46.2564119,30.9173527 46.7583633,30.6380352 47.1888112,30.266678 L47.1888112,33.7462767 L47.1871083,33.7462767 Z M57.6921258,7.68184397 L57.6921258,0 L67,0 L67,7.68184397 L57.6921258,7.68184397 Z M67,12.9346506 L67,46.8766973 L57.6921258,46.8766973 L57.6921258,12.9346506 L67,12.9346506 Z"/>
  </defs>
  <g fill="none" fill-rule="evenodd">
    <path fill="#FF1315" d="M24.9521581,12.4109928 C26.4803034,12.3975588 28.0056108,12.5452208 29.5028207,12.8515334 C30.7601381,13.0986583 31.957059,13.5891823 33.0262918,14.2955277 C34.0078242,14.96751 34.7934159,15.8881056 35.3027933,16.9632461 C35.8407852,18.0731815 36.109923,19.4437523 36.1102067,21.0749587 C36.1102067,22.8371212 35.7105778,24.30559 34.9113201,25.480365 C34.1120625,26.6551401 32.9294873,27.617803 31.3635947,28.3683537 C33.5166971,28.9886576 35.1233681,30.0736929 36.1836079,31.6234595 C37.2438477,33.1732261 37.7739676,35.0414448 37.7739676,37.2281154 C37.7739676,38.9902779 37.4314285,40.5154991 36.7463505,41.803779 C36.0886284,43.0612992 35.140423,44.143675 33.9805076,44.9609869 C32.778222,45.797128 31.4356325,46.4105624 30.0166292,46.7720984 C28.5236408,47.1647463 26.9860754,47.3621866 25.4423506,47.3594859 L0,47.3595133 L0,12.4109928 L24.9521581,12.4109928 Z"/>
    <mask id="bai-logo-colored-b" fill="#fff">
      <use xlink:href="#bai-logo-colored-a"/>
    </mask>
    <use fill="#3131FF" xlink:href="#bai-logo-colored-a"/>
    <path fill="#311315" d="M24.9521581,12.4109928 C26.4803034,12.3975588 28.0056108,12.5452208 29.5028207,12.8515334 C30.7601381,13.0986583 31.957059,13.5891823 33.0262918,14.2955277 C34.0078242,14.96751 34.7934159,15.8881056 35.3027933,16.9632461 C35.8407852,18.0731815 36.109923,19.4437523 36.1102067,21.0749587 C36.1102067,22.8371212 35.7105778,24.30559 34.9113201,25.480365 C34.1120625,26.6551401 32.9294873,27.617803 31.3635947,28.3683537 C33.5166971,28.9886576 35.1233681,30.0736929 36.1836079,31.6234595 C37.2438477,33.1732261 37.7739676,35.0414448 37.7739676,37.2281154 C37.7739676,38.9902779 37.4314285,40.5154991 36.7463505,41.803779 C36.0886284,43.0612992 35.140423,44.143675 33.9805076,44.9609869 C32.778222,45.797128 31.4356325,46.4105624 30.0166292,46.7720984 C28.5236408,47.1647463 26.9860754,47.3621866 25.4423506,47.3594859 L0,47.3595133 L0,12.4109928 L24.9521581,12.4109928 Z" mask="url(#bai-logo-colored-b)"/>
  </g>
</svg>
