<?xml version="1.0" encoding="utf-8"?>
<!DOCTYPE svg PUBLIC "-//W3C//DTD SVG 1.1//EN" "http://www.w3.org/Graphics/SVG/1.1/DTD/svg11.dtd">
<svg version="1.1" id="asseco-logotype" xmlns="http://www.w3.org/2000/svg" xmlns:xlink="http://www.w3.org/1999/xlink" x="0px" y="0px"
	 width="160px" height="18px" viewBox="0 0 508.141 55.88" enable-background="new 0 0 508.141 55.88" xml:space="preserve">
<g>
	<path fill-rule="evenodd" clip-rule="evenodd" fill="#1D1E1C" d="M236.645,4.933c-0.017-3.038-1.742-4.922-4.938-4.922h-21.361
		c-11.484,0-16.44,4.91-16.44,16.434v23.007c0,4.542-2.031,6.572-6.703,6.572h-27.799c-2.97,0-4.933,1.913-4.933,4.968
		c0,2.941,1.889,4.888,4.865,4.888h27.867c11.432,0,16.563-4.921,16.563-16.428V16.445c0-4.894,1.771-6.568,6.58-6.568h21.361
		C234.908,9.877,236.628,7.948,236.645,4.933"/>
	<path fill-rule="evenodd" clip-rule="evenodd" fill="#1D1E1C" d="M65.729,0L16.428,0.011C6.573,0.011,0,6.585,0,16.445v23.007
		c0,9.866,6.573,16.429,16.428,16.417h39.441c3.287,0.012,6.568-3.27,6.568-6.551l-0.006-11.507c0.006-2.845-2.11-4.926-4.819-4.926
		c-3.067,0-5.03,1.929-5.03,4.926v8.215H16.428c-3.287,0-6.574-3.287-6.574-6.574V16.445c0-3.287,3.287-6.568,6.574-6.579
		l49.301,0.011c3.293,0,6.579,3.281,6.579,6.568v34.514c0,2.591,1.975,4.922,4.928,4.922c2.794,0,4.927-1.567,4.927-4.922V16.445
		C82.163,6.585,75.595,0.011,65.729,0"/>
	<path fill-rule="evenodd" clip-rule="evenodd" fill="#1D1E1C" d="M246.5,39.452c0,11.508,4.825,16.429,16.434,16.429h60.791
		c2.976,0,4.938-1.912,4.938-4.955c0-2.942-1.896-4.899-4.877-4.899h-60.853c-4.934-0.08-6.578-1.765-6.578-6.574V16.445
		c0-4.916,1.786-6.568,6.578-6.568h49.295c4.64,0,6.573,1.721,6.573,6.568c0,4.927-1.719,6.569-6.573,6.569h-41.042
		c-3.309,0-4.932,1.663-4.932,4.932c0,3.156,1.674,4.939,4.932,4.939h41.042c11.643,0,16.435-4.939,16.435-16.44
		s-4.951-16.433-16.435-16.433h-49.295c-11.812,0-16.434,4.926-16.434,16.433V39.452z"/>
	<path fill-rule="evenodd" clip-rule="evenodd" fill="#1D1E1C" d="M338.522,39.452c0,11.508,4.831,16.429,16.435,16.429h55.233
		c2.971,0,4.934-1.912,4.934-4.955c0-2.942-1.714-4.899-4.871-4.899h-55.296c-4.927-0.08-6.58-1.765-6.58-6.574V16.445
		c0-4.803,1.653-6.5,6.58-6.568h55.166c2.975,0,4.938-1.895,4.938-4.933c0-2.952-1.9-4.932-4.876-4.932h-55.229
		c-11.604,0-16.435,4.921-16.435,16.433V39.452z"/>
	<path fill-rule="evenodd" clip-rule="evenodd" fill="#1D1E1C" d="M425.983,39.369c0,11.511,4.837,16.512,16.429,16.512h49.297
		c11.601,0,16.433-5.001,16.433-16.512V16.366c0-11.501-4.832-16.355-16.433-16.355h-49.297c-11.592,0-16.429,4.854-16.429,16.355
		V39.369z M442.412,46.015c-4.928-0.068-6.573-1.851-6.573-6.646V16.366c0-4.804,1.646-6.421,6.573-6.488h49.297
		c4.926,0.067,6.578,1.764,6.578,6.568v22.922c0,4.796-1.652,6.578-6.578,6.657L442.412,46.015z"/>
	<path fill-rule="evenodd" clip-rule="evenodd" fill="#1D1E1C" d="M174.186,4.933c-0.017-3.038-1.742-4.922-4.944-4.922h-21.361
		c-11.484,0-16.44,4.91-16.44,16.434v23.007c0,4.542-2.025,6.572-6.698,6.572H96.752c-2.964,0-4.746,1.913-4.746,4.968
		c0,2.941,1.782,4.888,4.746,4.888h27.991c11.428,0,16.564-4.921,16.564-16.428V16.445c0-4.894,1.771-6.568,6.574-6.568h21.361
		C172.455,9.877,174.169,7.948,174.186,4.933"/>
</g>
</svg>
